solid ASCII
  facet normal 0.000000e+00 -1.000000e+00 0.000000e+00
    outer loop
      vertex   -1.000000e+01 -2.000000e+00 2.000000e+00
      vertex   -1.000000e+01 -2.000000e+00 0.000000e+00
      vertex   1.000000e+01 -2.000000e+00 2.000000e+00
    endloop
  endfacet
  facet normal 0.000000e+00 -1.000000e+00 -0.000000e+00
    outer loop
      vertex   1.000000e+01 -2.000000e+00 2.000000e+00
      vertex   -1.000000e+01 -2.000000e+00 0.000000e+00
      vertex   1.000000e+01 -2.000000e+00 0.000000e+00
    endloop
  endfacet
  facet normal 1.000000e+00 -0.000000e+00 8.881784e-17
    outer loop
      vertex   3.500000e+00 0.000000e+00 1.700000e+01
      vertex   3.500000e+00 0.000000e+00 2.000000e+00
      vertex   3.500000e+00 4.000000e+00 1.700000e+01
    endloop
  endfacet
  facet normal 1.000000e+00 0.000000e+00 8.881784e-17
    outer loop
      vertex   3.500000e+00 4.000000e+00 1.700000e+01
      vertex   3.500000e+00 0.000000e+00 2.000000e+00
      vertex   3.500000e+00 4.000000e+00 2.000000e+00
    endloop
  endfacet
  facet normal 0.000000e+00 0.000000e+00 1.000000e+00
    outer loop
      vertex   -3.500000e+00 0.000000e+00 1.700000e+01
      vertex   3.500000e+00 0.000000e+00 1.700000e+01
      vertex   -3.500000e+00 4.000000e+00 1.700000e+01
    endloop
  endfacet
  facet normal -0.000000e+00 0.000000e+00 1.000000e+00
    outer loop
      vertex   -3.500000e+00 4.000000e+00 1.700000e+01
      vertex   3.500000e+00 0.000000e+00 1.700000e+01
      vertex   3.500000e+00 4.000000e+00 1.700000e+01
    endloop
  endfacet
  facet normal -1.000000e+00 0.000000e+00 8.881784e-17
    outer loop
      vertex   -3.500000e+00 0.000000e+00 2.000000e+00
      vertex   -3.500000e+00 0.000000e+00 1.700000e+01
      vertex   -3.500000e+00 4.000000e+00 2.000000e+00
    endloop
  endfacet
  facet normal -1.000000e+00 0.000000e+00 8.881784e-17
    outer loop
      vertex   -3.500000e+00 4.000000e+00 2.000000e+00
      vertex   -3.500000e+00 0.000000e+00 1.700000e+01
      vertex   -3.500000e+00 4.000000e+00 1.700000e+01
    endloop
  endfacet
  facet normal -0.000000e+00 1.000000e+00 0.000000e+00
    outer loop
      vertex   -3.500000e+00 4.000000e+00 2.000000e+00
      vertex   -3.500000e+00 4.000000e+00 1.700000e+01
      vertex   3.500000e+00 4.000000e+00 2.000000e+00
    endloop
  endfacet
  facet normal 0.000000e+00 1.000000e+00 0.000000e+00
    outer loop
      vertex   3.500000e+00 4.000000e+00 2.000000e+00
      vertex   -3.500000e+00 4.000000e+00 1.700000e+01
      vertex   3.500000e+00 4.000000e+00 1.700000e+01
    endloop
  endfacet
  facet normal 4.588076e-09 0.000000e+00 1.000000e+00
    outer loop
      vertex   1.000000e+01 3.000000e+01 2.000000e+00
      vertex   3.504396e+00 1.600000e+01 2.000000e+00
      vertex   1.000000e+01 -2.000000e+00 2.000000e+00
    endloop
  endfacet
  facet normal -1.600950e-08 -7.432984e-09 1.000000e+00
    outer loop
      vertex   1.000000e+01 -2.000000e+00 2.000000e+00
      vertex   3.504396e+00 1.600000e+01 2.000000e+00
      vertex   3.500000e+00 1.200000e+01 2.000000e+00
    endloop
  endfacet
  facet normal 0.000000e+00 0.000000e+00 1.000000e+00
    outer loop
      vertex   1.000000e+01 -2.000000e+00 2.000000e+00
      vertex   3.500000e+00 1.200000e+01 2.000000e+00
      vertex   3.500000e+00 8.000000e+00 2.000000e+00
    endloop
  endfacet
  facet normal -0.000000e+00 1.490116e-08 1.000000e+00
    outer loop
      vertex   -1.000000e+01 3.000000e+01 2.000000e+00
      vertex   3.500000e+00 2.800000e+01 2.000000e+00
      vertex   1.000000e+01 3.000000e+01 2.000000e+00
    endloop
  endfacet
  facet normal 4.584973e-09 0.000000e+00 1.000000e+00
    outer loop
      vertex   1.000000e+01 3.000000e+01 2.000000e+00
      vertex   3.500000e+00 2.800000e+01 2.000000e+00
      vertex   3.500000e+00 2.400000e+01 2.000000e+00
    endloop
  endfacet
  facet normal 4.580326e-09 5.034241e-12 1.000000e+00
    outer loop
      vertex   1.000000e+01 3.000000e+01 2.000000e+00
      vertex   3.500000e+00 2.400000e+01 2.000000e+00
      vertex   3.504396e+00 2.000000e+01 2.000000e+00
    endloop
  endfacet
  facet normal 0.000000e+00 0.000000e+00 1.000000e+00
    outer loop
      vertex   3.504396e+00 2.000000e+01 2.000000e+00
      vertex   3.500000e+00 2.400000e+01 2.000000e+00
      vertex   -3.500000e+00 2.000000e+01 2.000000e+00
    endloop
  endfacet
  facet normal 0.000000e+00 0.000000e+00 1.000000e+00
    outer loop
      vertex   -3.500000e+00 2.000000e+01 2.000000e+00
      vertex   3.500000e+00 2.400000e+01 2.000000e+00
      vertex   -3.500000e+00 2.400000e+01 2.000000e+00
    endloop
  endfacet
  facet normal -4.584973e-09 0.000000e+00 1.000000e+00
    outer loop
      vertex   -3.500000e+00 2.000000e+01 2.000000e+00
      vertex   -3.500000e+00 2.400000e+01 2.000000e+00
      vertex   -1.000000e+01 3.000000e+01 2.000000e+00
    endloop
  endfacet
  facet normal -4.584973e-09 0.000000e+00 1.000000e+00
    outer loop
      vertex   -1.000000e+01 3.000000e+01 2.000000e+00
      vertex   -3.500000e+00 2.400000e+01 2.000000e+00
      vertex   -3.500000e+00 2.800000e+01 2.000000e+00
    endloop
  endfacet
  facet normal 0.000000e+00 1.490116e-08 1.000000e+00
    outer loop
      vertex   -1.000000e+01 3.000000e+01 2.000000e+00
      vertex   -3.500000e+00 2.800000e+01 2.000000e+00
      vertex   3.500000e+00 2.800000e+01 2.000000e+00
    endloop
  endfacet
  facet normal -4.584973e-09 0.000000e+00 1.000000e+00
    outer loop
      vertex   -3.500000e+00 2.000000e+01 2.000000e+00
      vertex   -1.000000e+01 3.000000e+01 2.000000e+00
      vertex   -3.500000e+00 1.600000e+01 2.000000e+00
    endloop
  endfacet
  facet normal -4.584973e-09 0.000000e+00 1.000000e+00
    outer loop
      vertex   -3.500000e+00 1.600000e+01 2.000000e+00
      vertex   -1.000000e+01 3.000000e+01 2.000000e+00
      vertex   -1.000000e+01 -2.000000e+00 2.000000e+00
    endloop
  endfacet
  facet normal 1.604740e-08 -7.450580e-09 1.000000e+00
    outer loop
      vertex   -3.500000e+00 1.600000e+01 2.000000e+00
      vertex   -1.000000e+01 -2.000000e+00 2.000000e+00
      vertex   -3.500000e+00 1.200000e+01 2.000000e+00
    endloop
  endfacet
  facet normal -6.832142e-17 0.000000e+00 1.000000e+00
    outer loop
      vertex   -3.500000e+00 1.200000e+01 2.000000e+00
      vertex   -1.000000e+01 -2.000000e+00 2.000000e+00
      vertex   -3.500000e+00 8.000000e+00 2.000000e+00
    endloop
  endfacet
  facet normal -6.832142e-17 0.000000e+00 1.000000e+00
    outer loop
      vertex   -3.500000e+00 8.000000e+00 2.000000e+00
      vertex   -1.000000e+01 -2.000000e+00 2.000000e+00
      vertex   -3.500000e+00 4.000000e+00 2.000000e+00
    endloop
  endfacet
  facet normal 6.344132e-17 0.000000e+00 1.000000e+00
    outer loop
      vertex   -3.500000e+00 8.000000e+00 2.000000e+00
      vertex   -3.500000e+00 4.000000e+00 2.000000e+00
      vertex   3.500000e+00 4.000000e+00 2.000000e+00
    endloop
  endfacet
  facet normal -6.832142e-17 0.000000e+00 1.000000e+00
    outer loop
      vertex   -3.500000e+00 4.000000e+00 2.000000e+00
      vertex   -1.000000e+01 -2.000000e+00 2.000000e+00
      vertex   -3.500000e+00 0.000000e+00 2.000000e+00
    endloop
  endfacet
  facet normal 0.000000e+00 -2.220446e-16 1.000000e+00
    outer loop
      vertex   -3.500000e+00 0.000000e+00 2.000000e+00
      vertex   -1.000000e+01 -2.000000e+00 2.000000e+00
      vertex   1.000000e+01 -2.000000e+00 2.000000e+00
    endloop
  endfacet
  facet normal 6.344132e-17 2.061843e-16 1.000000e+00
    outer loop
      vertex   -3.500000e+00 0.000000e+00 2.000000e+00
      vertex   1.000000e+01 -2.000000e+00 2.000000e+00
      vertex   3.500000e+00 0.000000e+00 2.000000e+00
    endloop
  endfacet
  facet normal -0.000000e+00 0.000000e+00 1.000000e+00
    outer loop
      vertex   3.500000e+00 0.000000e+00 2.000000e+00
      vertex   1.000000e+01 -2.000000e+00 2.000000e+00
      vertex   3.500000e+00 4.000000e+00 2.000000e+00
    endloop
  endfacet
  facet normal -0.000000e+00 0.000000e+00 1.000000e+00
    outer loop
      vertex   3.500000e+00 4.000000e+00 2.000000e+00
      vertex   1.000000e+01 -2.000000e+00 2.000000e+00
      vertex   3.500000e+00 8.000000e+00 2.000000e+00
    endloop
  endfacet
  facet normal 6.344132e-17 -0.000000e+00 1.000000e+00
    outer loop
      vertex   3.500000e+00 4.000000e+00 2.000000e+00
      vertex   3.500000e+00 8.000000e+00 2.000000e+00
      vertex   -3.500000e+00 8.000000e+00 2.000000e+00
    endloop
  endfacet
  facet normal 6.344132e-17 -7.450581e-09 1.000000e+00
    outer loop
      vertex   -3.500000e+00 1.200000e+01 2.000000e+00
      vertex   3.500000e+00 1.200000e+01 2.000000e+00
      vertex   -3.500000e+00 1.600000e+01 2.000000e+00
    endloop
  endfacet
  facet normal 0.000000e+00 -7.450581e-09 1.000000e+00
    outer loop
      vertex   -3.500000e+00 1.600000e+01 2.000000e+00
      vertex   3.500000e+00 1.200000e+01 2.000000e+00
      vertex   3.504396e+00 1.600000e+01 2.000000e+00
    endloop
  endfacet
  facet normal 4.588076e-09 0.000000e+00 1.000000e+00
    outer loop
      vertex   3.504396e+00 2.000000e+01 2.000000e+00
      vertex   3.504396e+00 1.600000e+01 2.000000e+00
      vertex   1.000000e+01 3.000000e+01 2.000000e+00
    endloop
  endfacet
  facet normal 7.071068e-01 -0.000000e+00 7.071068e-01
    outer loop
      vertex   -7.106602e+00 2.400000e+01 1.260660e+01
      vertex   3.500000e+00 2.400000e+01 2.000000e+00
      vertex   -7.106602e+00 2.800000e+01 1.260660e+01
    endloop
  endfacet
  facet normal 7.071068e-01 0.000000e+00 7.071068e-01
    outer loop
      vertex   -7.106602e+00 2.800000e+01 1.260660e+01
      vertex   3.500000e+00 2.400000e+01 2.000000e+00
      vertex   3.500000e+00 2.800000e+01 2.000000e+00
    endloop
  endfacet
  facet normal 0.000000e+00 0.000000e+00 1.000000e+00
    outer loop
      vertex   -1.410660e+01 2.400000e+01 1.260660e+01
      vertex   -7.106602e+00 2.400000e+01 1.260660e+01
      vertex   -1.410660e+01 2.800000e+01 1.260660e+01
    endloop
  endfacet
  facet normal -0.000000e+00 0.000000e+00 1.000000e+00
    outer loop
      vertex   -1.410660e+01 2.800000e+01 1.260660e+01
      vertex   -7.106602e+00 2.400000e+01 1.260660e+01
      vertex   -7.106602e+00 2.800000e+01 1.260660e+01
    endloop
  endfacet
  facet normal -7.071068e-01 0.000000e+00 -7.071068e-01
    outer loop
      vertex   -3.500000e+00 2.400000e+01 2.000000e+00
      vertex   -1.410660e+01 2.400000e+01 1.260660e+01
      vertex   -3.500000e+00 2.800000e+01 2.000000e+00
    endloop
  endfacet
  facet normal -7.071068e-01 0.000000e+00 -7.071068e-01
    outer loop
      vertex   -3.500000e+00 2.800000e+01 2.000000e+00
      vertex   -1.410660e+01 2.400000e+01 1.260660e+01
      vertex   -1.410660e+01 2.800000e+01 1.260660e+01
    endloop
  endfacet
  facet normal -0.000000e+00 1.000000e+00 0.000000e+00
    outer loop
      vertex   -1.410660e+01 2.800000e+01 1.260660e+01
      vertex   -7.106602e+00 2.800000e+01 1.260660e+01
      vertex   -3.500000e+00 2.800000e+01 2.000000e+00
    endloop
  endfacet
  facet normal 0.000000e+00 1.000000e+00 -0.000000e+00
    outer loop
      vertex   -3.500000e+00 2.800000e+01 2.000000e+00
      vertex   -7.106602e+00 2.800000e+01 1.260660e+01
      vertex   3.500000e+00 2.800000e+01 2.000000e+00
    endloop
  endfacet
  facet normal 0.000000e+00 -1.000000e+00 0.000000e+00
    outer loop
      vertex   -1.410660e+01 2.400000e+01 1.260660e+01
      vertex   -3.500000e+00 2.400000e+01 2.000000e+00
      vertex   -7.106602e+00 2.400000e+01 1.260660e+01
    endloop
  endfacet
  facet normal 0.000000e+00 -1.000000e+00 0.000000e+00
    outer loop
      vertex   -7.106602e+00 2.400000e+01 1.260660e+01
      vertex   -3.500000e+00 2.400000e+01 2.000000e+00
      vertex   3.500000e+00 2.400000e+01 2.000000e+00
    endloop
  endfacet
  facet normal 0.000000e+00 0.000000e+00 1.000000e+00
    outer loop
      vertex   -1.100000e+01 1.600000e+01 1.499038e+01
      vertex   -3.995604e+00 1.600000e+01 1.499038e+01
      vertex   -1.100000e+01 2.000000e+01 1.499038e+01
    endloop
  endfacet
  facet normal -0.000000e+00 0.000000e+00 1.000000e+00
    outer loop
      vertex   -1.100000e+01 2.000000e+01 1.499038e+01
      vertex   -3.995604e+00 1.600000e+01 1.499038e+01
      vertex   -3.995604e+00 2.000000e+01 1.499038e+01
    endloop
  endfacet
  facet normal -8.660254e-01 0.000000e+00 -5.000000e-01
    outer loop
      vertex   -3.500000e+00 1.600000e+01 2.000000e+00
      vertex   -1.100000e+01 1.600000e+01 1.499038e+01
      vertex   -3.500000e+00 2.000000e+01 2.000000e+00
    endloop
  endfacet
  facet normal -8.660254e-01 0.000000e+00 -5.000000e-01
    outer loop
      vertex   -3.500000e+00 2.000000e+01 2.000000e+00
      vertex   -1.100000e+01 1.600000e+01 1.499038e+01
      vertex   -1.100000e+01 2.000000e+01 1.499038e+01
    endloop
  endfacet
  facet normal 8.660254e-01 -0.000000e+00 5.000000e-01
    outer loop
      vertex   -3.995604e+00 1.600000e+01 1.499038e+01
      vertex   3.504396e+00 1.600000e+01 2.000000e+00
      vertex   -3.995604e+00 2.000000e+01 1.499038e+01
    endloop
  endfacet
  facet normal 8.660254e-01 0.000000e+00 5.000000e-01
    outer loop
      vertex   -3.995604e+00 2.000000e+01 1.499038e+01
      vertex   3.504396e+00 1.600000e+01 2.000000e+00
      vertex   3.504396e+00 2.000000e+01 2.000000e+00
    endloop
  endfacet
  facet normal 0.000000e+00 1.000000e+00 0.000000e+00
    outer loop
      vertex   3.504396e+00 2.000000e+01 2.000000e+00
      vertex   -3.500000e+00 2.000000e+01 2.000000e+00
      vertex   -3.995604e+00 2.000000e+01 1.499038e+01
    endloop
  endfacet
  facet normal 0.000000e+00 1.000000e+00 0.000000e+00
    outer loop
      vertex   -3.995604e+00 2.000000e+01 1.499038e+01
      vertex   -3.500000e+00 2.000000e+01 2.000000e+00
      vertex   -1.100000e+01 2.000000e+01 1.499038e+01
    endloop
  endfacet
  facet normal 0.000000e+00 -1.000000e+00 0.000000e+00
    outer loop
      vertex   3.504396e+00 1.600000e+01 2.000000e+00
      vertex   -3.995604e+00 1.600000e+01 1.499038e+01
      vertex   -3.500000e+00 1.600000e+01 2.000000e+00
    endloop
  endfacet
  facet normal 0.000000e+00 -1.000000e+00 0.000000e+00
    outer loop
      vertex   -3.500000e+00 1.600000e+01 2.000000e+00
      vertex   -3.995604e+00 1.600000e+01 1.499038e+01
      vertex   -1.100000e+01 1.600000e+01 1.499038e+01
    endloop
  endfacet
  facet normal -4.257475e-09 0.000000e+00 1.000000e+00
    outer loop
      vertex   -7.382286e+00 8.000000e+00 1.648889e+01
      vertex   -3.822856e-01 8.000000e+00 1.648889e+01
      vertex   -7.382286e+00 1.200000e+01 1.648889e+01
    endloop
  endfacet
  facet normal -4.257475e-09 0.000000e+00 1.000000e+00
    outer loop
      vertex   -7.382286e+00 1.200000e+01 1.648889e+01
      vertex   -3.822856e-01 8.000000e+00 1.648889e+01
      vertex   -3.822856e-01 1.200000e+01 1.648889e+01
    endloop
  endfacet
  facet normal -9.659258e-01 0.000000e+00 -2.588190e-01
    outer loop
      vertex   -3.500000e+00 8.000000e+00 2.000000e+00
      vertex   -7.382286e+00 8.000000e+00 1.648889e+01
      vertex   -3.500000e+00 1.200000e+01 2.000000e+00
    endloop
  endfacet
  facet normal -9.659258e-01 0.000000e+00 -2.588190e-01
    outer loop
      vertex   -3.500000e+00 1.200000e+01 2.000000e+00
      vertex   -7.382286e+00 8.000000e+00 1.648889e+01
      vertex   -7.382286e+00 1.200000e+01 1.648889e+01
    endloop
  endfacet
  facet normal 9.659258e-01 -0.000000e+00 2.588190e-01
    outer loop
      vertex   -3.822856e-01 8.000000e+00 1.648889e+01
      vertex   3.500000e+00 8.000000e+00 2.000000e+00
      vertex   -3.822856e-01 1.200000e+01 1.648889e+01
    endloop
  endfacet
  facet normal 9.659258e-01 0.000000e+00 2.588190e-01
    outer loop
      vertex   -3.822856e-01 1.200000e+01 1.648889e+01
      vertex   3.500000e+00 8.000000e+00 2.000000e+00
      vertex   3.500000e+00 1.200000e+01 2.000000e+00
    endloop
  endfacet
  facet normal 0.000000e+00 1.000000e+00 0.000000e+00
    outer loop
      vertex   3.500000e+00 1.200000e+01 2.000000e+00
      vertex   -3.500000e+00 1.200000e+01 2.000000e+00
      vertex   -3.822856e-01 1.200000e+01 1.648889e+01
    endloop
  endfacet
  facet normal 0.000000e+00 1.000000e+00 0.000000e+00
    outer loop
      vertex   -3.822856e-01 1.200000e+01 1.648889e+01
      vertex   -3.500000e+00 1.200000e+01 2.000000e+00
      vertex   -7.382286e+00 1.200000e+01 1.648889e+01
    endloop
  endfacet
  facet normal 0.000000e+00 -1.000000e+00 0.000000e+00
    outer loop
      vertex   3.500000e+00 8.000000e+00 2.000000e+00
      vertex   -3.822856e-01 8.000000e+00 1.648889e+01
      vertex   -3.500000e+00 8.000000e+00 2.000000e+00
    endloop
  endfacet
  facet normal 0.000000e+00 -1.000000e+00 0.000000e+00
    outer loop
      vertex   -3.500000e+00 8.000000e+00 2.000000e+00
      vertex   -3.822856e-01 8.000000e+00 1.648889e+01
      vertex   -7.382286e+00 8.000000e+00 1.648889e+01
    endloop
  endfacet
  facet normal 0.000000e+00 0.000000e+00 -1.000000e+00
    outer loop
      vertex   -1.000000e+01 3.000000e+01 0.000000e+00
      vertex   1.000000e+01 3.000000e+01 0.000000e+00
      vertex   -1.000000e+01 -2.000000e+00 0.000000e+00
    endloop
  endfacet
  facet normal 0.000000e+00 0.000000e+00 -1.000000e+00
    outer loop
      vertex   -1.000000e+01 -2.000000e+00 0.000000e+00
      vertex   1.000000e+01 3.000000e+01 0.000000e+00
      vertex   1.000000e+01 -2.000000e+00 0.000000e+00
    endloop
  endfacet
  facet normal 1.000000e+00 0.000000e+00 -0.000000e+00
    outer loop
      vertex   1.000000e+01 3.000000e+01 0.000000e+00
      vertex   1.000000e+01 3.000000e+01 2.000000e+00
      vertex   1.000000e+01 -2.000000e+00 0.000000e+00
    endloop
  endfacet
  facet normal 1.000000e+00 0.000000e+00 0.000000e+00
    outer loop
      vertex   1.000000e+01 -2.000000e+00 0.000000e+00
      vertex   1.000000e+01 3.000000e+01 2.000000e+00
      vertex   1.000000e+01 -2.000000e+00 2.000000e+00
    endloop
  endfacet
  facet normal -1.000000e+00 -0.000000e+00 -0.000000e+00
    outer loop
      vertex   -1.000000e+01 3.000000e+01 2.000000e+00
      vertex   -1.000000e+01 3.000000e+01 0.000000e+00
      vertex   -1.000000e+01 -2.000000e+00 2.000000e+00
    endloop
  endfacet
  facet normal -1.000000e+00 0.000000e+00 0.000000e+00
    outer loop
      vertex   -1.000000e+01 -2.000000e+00 2.000000e+00
      vertex   -1.000000e+01 3.000000e+01 0.000000e+00
      vertex   -1.000000e+01 -2.000000e+00 0.000000e+00
    endloop
  endfacet
  facet normal 0.000000e+00 1.000000e+00 0.000000e+00
    outer loop
      vertex   -1.000000e+01 3.000000e+01 0.000000e+00
      vertex   -1.000000e+01 3.000000e+01 2.000000e+00
      vertex   1.000000e+01 3.000000e+01 0.000000e+00
    endloop
  endfacet
  facet normal 0.000000e+00 1.000000e+00 -0.000000e+00
    outer loop
      vertex   1.000000e+01 3.000000e+01 0.000000e+00
      vertex   -1.000000e+01 3.000000e+01 2.000000e+00
      vertex   1.000000e+01 3.000000e+01 2.000000e+00
    endloop
  endfacet
  facet normal 0.000000e+00 -1.000000e+00 0.000000e+00
    outer loop
      vertex   -3.500000e+00 0.000000e+00 2.000000e+00
      vertex   3.500000e+00 0.000000e+00 2.000000e+00
      vertex   -3.500000e+00 0.000000e+00 1.700000e+01
    endloop
  endfacet
  facet normal 0.000000e+00 -1.000000e+00 0.000000e+00
    outer loop
      vertex   -3.500000e+00 0.000000e+00 1.700000e+01
      vertex   3.500000e+00 0.000000e+00 2.000000e+00
      vertex   3.500000e+00 0.000000e+00 1.700000e+01
    endloop
  endfacet
endsolid
